<mxfile host="65bd71144e">
    <diagram id="hqMbGVYrupXZU0K6U-KL" name="第 1 页">
        <mxGraphModel dx="1639" dy="215" grid="1" gridSize="10" guides="1" tooltips="1" connect="1" arrows="1" fold="1" page="1" pageScale="1" pageWidth="827" pageHeight="1169" math="0" shadow="0">
            <root>
                <mxCell id="0"/>
                <mxCell id="1" parent="0"/>
                <mxCell id="2" value="" style="rounded=0;whiteSpace=wrap;html=1;" parent="1" vertex="1">
                    <mxGeometry x="90" y="670" width="680" height="540" as="geometry"/>
                </mxCell>
                <mxCell id="3" value="" style="endArrow=none;html=1;exitX=0.001;exitY=0.112;exitDx=0;exitDy=0;exitPerimeter=0;entryX=1.003;entryY=0.109;entryDx=0;entryDy=0;entryPerimeter=0;" parent="1" source="2" target="2" edge="1">
                    <mxGeometry width="50" height="50" relative="1" as="geometry">
                        <mxPoint x="390" y="880" as="sourcePoint"/>
                        <mxPoint x="440" y="830" as="targetPoint"/>
                        <Array as="points"/>
                    </mxGeometry>
                </mxCell>
                <mxCell id="4" value="&lt;font style=&quot;font-size: 48px&quot;&gt;vt&lt;/font&gt;" style="text;html=1;strokeColor=none;fillColor=none;align=center;verticalAlign=middle;whiteSpace=wrap;rounded=0;" parent="1" vertex="1">
                    <mxGeometry x="90" y="680" width="50" height="40" as="geometry"/>
                </mxCell>
                <mxCell id="5" value="&lt;span style=&quot;font-size: 18px&quot;&gt;项目名&lt;/span&gt;" style="text;html=1;strokeColor=none;fillColor=none;align=center;verticalAlign=middle;whiteSpace=wrap;rounded=0;fontSize=48;" parent="1" vertex="1">
                    <mxGeometry x="390" y="680" width="60" height="30" as="geometry"/>
                </mxCell>
                <mxCell id="6" value="" style="endArrow=none;html=1;exitX=0;exitY=0.63;exitDx=0;exitDy=0;exitPerimeter=0;entryX=1;entryY=0.63;entryDx=0;entryDy=0;entryPerimeter=0;" parent="1" source="2" target="2" edge="1">
                    <mxGeometry width="50" height="50" relative="1" as="geometry">
                        <mxPoint x="230" y="990" as="sourcePoint"/>
                        <mxPoint x="770" y="1020" as="targetPoint"/>
                    </mxGeometry>
                </mxCell>
                <mxCell id="7" value="" style="endArrow=none;html=1;exitX=0.5;exitY=1;exitDx=0;exitDy=0;" parent="1" source="2" edge="1">
                    <mxGeometry width="50" height="50" relative="1" as="geometry">
                        <mxPoint x="430" y="1110" as="sourcePoint"/>
                        <mxPoint x="430" y="730" as="targetPoint"/>
                    </mxGeometry>
                </mxCell>
                <mxCell id="8" value="设置" style="ellipse;whiteSpace=wrap;html=1;aspect=fixed;" parent="1" vertex="1">
                    <mxGeometry x="720" y="685" width="40" height="40" as="geometry"/>
                </mxCell>
                <mxCell id="9" value="" style="endArrow=none;html=1;exitX=0;exitY=0.193;exitDx=0;exitDy=0;exitPerimeter=0;" parent="1" source="2" edge="1">
                    <mxGeometry width="50" height="50" relative="1" as="geometry">
                        <mxPoint x="100" y="800" as="sourcePoint"/>
                        <mxPoint x="430" y="770" as="targetPoint"/>
                    </mxGeometry>
                </mxCell>
                <mxCell id="10" value="素材文件下拉框" style="rounded=1;whiteSpace=wrap;html=1;" parent="1" vertex="1">
                    <mxGeometry x="100" y="740" width="120" height="30" as="geometry"/>
                </mxCell>
                <mxCell id="11" value="" style="endArrow=classic;html=1;entryX=1;entryY=0.5;entryDx=0;entryDy=0;" parent="1" source="10" target="12" edge="1">
                    <mxGeometry width="50" height="50" relative="1" as="geometry">
                        <mxPoint x="90" y="600" as="sourcePoint"/>
                        <mxPoint x="-40" y="580" as="targetPoint"/>
                    </mxGeometry>
                </mxCell>
                <mxCell id="12" value="素材文件sql筛选项" style="swimlane;startSize=23;" parent="1" vertex="1">
                    <mxGeometry x="-240" y="460" width="180" height="150" as="geometry"/>
                </mxCell>
                <mxCell id="129" style="edgeStyle=none;html=1;fontSize=11;entryX=0.55;entryY=0.95;entryDx=0;entryDy=0;entryPerimeter=0;" parent="1" source="13" target="130" edge="1">
                    <mxGeometry relative="1" as="geometry">
                        <mxPoint x="-160" y="390" as="targetPoint"/>
                    </mxGeometry>
                </mxCell>
                <mxCell id="13" value="最近n小时生成的素材文件&lt;br&gt;标签名中含有n的素材文件&lt;br&gt;相对路径包含n的素材文件&lt;br&gt;。。。" style="text;html=1;align=center;verticalAlign=middle;resizable=0;points=[];autosize=1;strokeColor=none;fillColor=none;" parent="1" vertex="1">
                    <mxGeometry x="-225" y="520" width="150" height="60" as="geometry"/>
                </mxCell>
                <mxCell id="14" value="编辑" style="ellipse;whiteSpace=wrap;html=1;aspect=fixed;" parent="1" vertex="1">
                    <mxGeometry x="390" y="740" width="30" height="30" as="geometry"/>
                </mxCell>
                <mxCell id="15" value="素材文件选择器的sql管理面板" style="swimlane;" parent="1" vertex="1">
                    <mxGeometry x="140" y="280" width="200" height="200" as="geometry"/>
                </mxCell>
                <mxCell id="17" value="" style="rounded=1;whiteSpace=wrap;html=1;" parent="15" vertex="1">
                    <mxGeometry x="10" y="50" width="180" height="130" as="geometry"/>
                </mxCell>
                <mxCell id="18" value="素材文件筛选sql编辑" style="text;html=1;strokeColor=none;fillColor=none;align=center;verticalAlign=middle;whiteSpace=wrap;rounded=0;" parent="15" vertex="1">
                    <mxGeometry x="10" y="60" width="120" height="20" as="geometry"/>
                </mxCell>
                <mxCell id="19" value="area input" style="rounded=0;whiteSpace=wrap;html=1;" parent="15" vertex="1">
                    <mxGeometry x="10" y="80" width="180" height="60" as="geometry"/>
                </mxCell>
                <mxCell id="20" value="更新" style="ellipse;whiteSpace=wrap;html=1;aspect=fixed;" parent="15" vertex="1">
                    <mxGeometry x="150" y="150" width="30" height="30" as="geometry"/>
                </mxCell>
                <mxCell id="21" value="删除" style="ellipse;whiteSpace=wrap;html=1;aspect=fixed;" parent="15" vertex="1">
                    <mxGeometry x="120" y="150" width="30" height="30" as="geometry"/>
                </mxCell>
                <mxCell id="22" value="新增" style="ellipse;whiteSpace=wrap;html=1;aspect=fixed;" parent="15" vertex="1">
                    <mxGeometry x="90" y="150" width="30" height="30" as="geometry"/>
                </mxCell>
                <mxCell id="16" value="" style="endArrow=classic;html=1;exitX=0.5;exitY=0;exitDx=0;exitDy=0;entryX=1;entryY=1;entryDx=0;entryDy=0;" parent="1" source="14" target="15" edge="1">
                    <mxGeometry width="50" height="50" relative="1" as="geometry">
                        <mxPoint x="230" y="590" as="sourcePoint"/>
                        <mxPoint x="280" y="540" as="targetPoint"/>
                    </mxGeometry>
                </mxCell>
                <mxCell id="24" value="新增需要命名新的筛选sql" style="ellipse;shape=cloud;whiteSpace=wrap;html=1;" parent="1" vertex="1">
                    <mxGeometry x="170" y="90" width="120" height="80" as="geometry"/>
                </mxCell>
                <mxCell id="25" value="" style="endArrow=classic;html=1;exitX=0.5;exitY=0;exitDx=0;exitDy=0;entryX=0.55;entryY=0.95;entryDx=0;entryDy=0;entryPerimeter=0;" parent="1" source="22" target="24" edge="1">
                    <mxGeometry width="50" height="50" relative="1" as="geometry">
                        <mxPoint x="90" y="220" as="sourcePoint"/>
                        <mxPoint x="140" y="170" as="targetPoint"/>
                    </mxGeometry>
                </mxCell>
                <mxCell id="26" value="" style="rounded=1;whiteSpace=wrap;html=1;" parent="1" vertex="1">
                    <mxGeometry x="90" y="780" width="340" height="150" as="geometry"/>
                </mxCell>
                <mxCell id="27" value="" style="endArrow=none;html=1;exitX=0;exitY=0.25;exitDx=0;exitDy=0;entryX=1;entryY=0.25;entryDx=0;entryDy=0;" parent="1" source="26" target="26" edge="1">
                    <mxGeometry width="50" height="50" relative="1" as="geometry">
                        <mxPoint x="190" y="860" as="sourcePoint"/>
                        <mxPoint x="240" y="810" as="targetPoint"/>
                    </mxGeometry>
                </mxCell>
                <mxCell id="29" value="类型" style="text;html=1;strokeColor=none;fillColor=none;align=center;verticalAlign=middle;whiteSpace=wrap;rounded=0;" parent="1" vertex="1">
                    <mxGeometry x="110" y="790" width="60" height="30" as="geometry"/>
                </mxCell>
                <mxCell id="30" value="文件名" style="text;html=1;strokeColor=none;fillColor=none;align=center;verticalAlign=middle;whiteSpace=wrap;rounded=0;" parent="1" vertex="1">
                    <mxGeometry x="230" y="790" width="60" height="30" as="geometry"/>
                </mxCell>
                <mxCell id="31" value="时长(s)" style="text;html=1;strokeColor=none;fillColor=none;align=center;verticalAlign=middle;whiteSpace=wrap;rounded=0;" parent="1" vertex="1">
                    <mxGeometry x="360" y="790" width="60" height="30" as="geometry"/>
                </mxCell>
                <mxCell id="32" value="" style="endArrow=none;html=1;exitX=0;exitY=0.5;exitDx=0;exitDy=0;entryX=1;entryY=0.5;entryDx=0;entryDy=0;" parent="1" source="26" target="26" edge="1">
                    <mxGeometry width="50" height="50" relative="1" as="geometry">
                        <mxPoint x="100" y="830" as="sourcePoint"/>
                        <mxPoint x="440" y="830" as="targetPoint"/>
                    </mxGeometry>
                </mxCell>
                <mxCell id="33" value="" style="endArrow=none;html=1;exitX=0;exitY=0.75;exitDx=0;exitDy=0;entryX=1;entryY=0.75;entryDx=0;entryDy=0;" parent="1" source="26" target="26" edge="1">
                    <mxGeometry width="50" height="50" relative="1" as="geometry">
                        <mxPoint x="100" y="870" as="sourcePoint"/>
                        <mxPoint x="440" y="870" as="targetPoint"/>
                    </mxGeometry>
                </mxCell>
                <mxCell id="34" value="视频&amp;nbsp;" style="text;html=1;strokeColor=none;fillColor=none;align=center;verticalAlign=middle;whiteSpace=wrap;rounded=0;" parent="1" vertex="1">
                    <mxGeometry x="110" y="820" width="60" height="30" as="geometry"/>
                </mxCell>
                <mxCell id="35" value="test.mp4" style="text;html=1;strokeColor=none;fillColor=none;align=center;verticalAlign=middle;whiteSpace=wrap;rounded=0;" parent="1" vertex="1">
                    <mxGeometry x="230" y="820" width="60" height="30" as="geometry"/>
                </mxCell>
                <mxCell id="36" value="3.434s" style="text;html=1;strokeColor=none;fillColor=none;align=center;verticalAlign=middle;whiteSpace=wrap;rounded=0;" parent="1" vertex="1">
                    <mxGeometry x="360" y="820" width="60" height="30" as="geometry"/>
                </mxCell>
                <mxCell id="37" value="音频" style="text;html=1;strokeColor=none;fillColor=none;align=center;verticalAlign=middle;whiteSpace=wrap;rounded=0;" parent="1" vertex="1">
                    <mxGeometry x="110" y="860" width="60" height="30" as="geometry"/>
                </mxCell>
                <mxCell id="38" value="test.mp3" style="text;html=1;strokeColor=none;fillColor=none;align=center;verticalAlign=middle;whiteSpace=wrap;rounded=0;" parent="1" vertex="1">
                    <mxGeometry x="230" y="860" width="60" height="30" as="geometry"/>
                </mxCell>
                <mxCell id="39" value="2.113s" style="text;html=1;strokeColor=none;fillColor=none;align=center;verticalAlign=middle;whiteSpace=wrap;rounded=0;" parent="1" vertex="1">
                    <mxGeometry x="360" y="860" width="60" height="30" as="geometry"/>
                </mxCell>
                <mxCell id="40" value="图片" style="text;html=1;strokeColor=none;fillColor=none;align=center;verticalAlign=middle;whiteSpace=wrap;rounded=0;" parent="1" vertex="1">
                    <mxGeometry x="110" y="900" width="60" height="30" as="geometry"/>
                </mxCell>
                <mxCell id="41" value="test.jpg" style="text;html=1;strokeColor=none;fillColor=none;align=center;verticalAlign=middle;whiteSpace=wrap;rounded=0;" parent="1" vertex="1">
                    <mxGeometry x="230" y="900" width="60" height="30" as="geometry"/>
                </mxCell>
                <mxCell id="42" value="-" style="text;html=1;strokeColor=none;fillColor=none;align=center;verticalAlign=middle;whiteSpace=wrap;rounded=0;" parent="1" vertex="1">
                    <mxGeometry x="360" y="900" width="60" height="30" as="geometry"/>
                </mxCell>
                <mxCell id="43" value="字幕" style="ellipse;whiteSpace=wrap;html=1;aspect=fixed;" parent="1" vertex="1">
                    <mxGeometry x="670" y="685" width="40" height="40" as="geometry"/>
                </mxCell>
                <mxCell id="44" value="素材文件" style="swimlane;" parent="1" vertex="1">
                    <mxGeometry x="-413" y="950" width="200" height="170" as="geometry"/>
                </mxCell>
                <mxCell id="47" value="右键支持的操作；&lt;br&gt;管理标签&lt;br&gt;重命名&lt;br&gt;删除" style="text;html=1;align=center;verticalAlign=middle;resizable=0;points=[];autosize=1;strokeColor=none;fillColor=none;" parent="44" vertex="1">
                    <mxGeometry x="38" y="60" width="110" height="60" as="geometry"/>
                </mxCell>
                <mxCell id="45" value="" style="endArrow=classic;html=1;entryX=1;entryY=0.5;entryDx=0;entryDy=0;" parent="1" source="34" target="44" edge="1">
                    <mxGeometry width="50" height="50" relative="1" as="geometry">
                        <mxPoint x="-140" y="900" as="sourcePoint"/>
                        <mxPoint x="-90" y="850" as="targetPoint"/>
                    </mxGeometry>
                </mxCell>
                <mxCell id="48" value="" style="endArrow=classic;html=1;entryX=1;entryY=0.5;entryDx=0;entryDy=0;exitX=0;exitY=0.5;exitDx=0;exitDy=0;" parent="1" target="44" edge="1">
                    <mxGeometry width="50" height="50" relative="1" as="geometry">
                        <mxPoint x="120" y="925" as="sourcePoint"/>
                        <mxPoint x="-203" y="1045" as="targetPoint"/>
                    </mxGeometry>
                </mxCell>
                <mxCell id="49" value="" style="endArrow=classic;html=1;entryX=1;entryY=0.5;entryDx=0;entryDy=0;exitX=0.25;exitY=1;exitDx=0;exitDy=0;" parent="1" source="37" target="44" edge="1">
                    <mxGeometry width="50" height="50" relative="1" as="geometry">
                        <mxPoint x="130" y="935" as="sourcePoint"/>
                        <mxPoint x="-193" y="1055" as="targetPoint"/>
                    </mxGeometry>
                </mxCell>
                <mxCell id="50" value="字幕面板" style="swimlane;" parent="1" vertex="1">
                    <mxGeometry x="500" y="340" width="250" height="210" as="geometry"/>
                </mxCell>
                <mxCell id="51" value="" style="rounded=1;whiteSpace=wrap;html=1;" parent="50" vertex="1">
                    <mxGeometry y="30" width="240" height="160" as="geometry"/>
                </mxCell>
                <mxCell id="52" value="字幕一键生成" style="text;html=1;strokeColor=none;fillColor=none;align=center;verticalAlign=middle;whiteSpace=wrap;rounded=0;" parent="50" vertex="1">
                    <mxGeometry x="-10" y="30" width="110" height="30" as="geometry"/>
                </mxCell>
                <mxCell id="53" value="源轨道下拉框：" style="text;html=1;strokeColor=none;fillColor=none;align=center;verticalAlign=middle;whiteSpace=wrap;rounded=0;" parent="50" vertex="1">
                    <mxGeometry x="20" y="60" width="100" height="21" as="geometry"/>
                </mxCell>
                <mxCell id="54" value="v1" style="rounded=1;whiteSpace=wrap;html=1;" parent="50" vertex="1">
                    <mxGeometry x="110" y="60" width="100" height="20" as="geometry"/>
                </mxCell>
                <mxCell id="55" value="动态图形模板下拉框：" style="text;html=1;strokeColor=none;fillColor=none;align=center;verticalAlign=middle;whiteSpace=wrap;rounded=0;" parent="50" vertex="1">
                    <mxGeometry x="20" y="102" width="130" height="21" as="geometry"/>
                </mxCell>
                <mxCell id="56" value="可爱" style="rounded=1;whiteSpace=wrap;html=1;" parent="50" vertex="1">
                    <mxGeometry x="140" y="102" width="100" height="20" as="geometry"/>
                </mxCell>
                <mxCell id="57" value="&lt;font style=&quot;font-size: 8px&quot;&gt;生成&lt;/font&gt;" style="ellipse;whiteSpace=wrap;html=1;aspect=fixed;" parent="50" vertex="1">
                    <mxGeometry x="110" y="160" width="20" height="20" as="geometry"/>
                </mxCell>
                <mxCell id="96" value="目标轨道下拉框：" style="text;html=1;strokeColor=none;fillColor=none;align=center;verticalAlign=middle;whiteSpace=wrap;rounded=0;" parent="50" vertex="1">
                    <mxGeometry x="20" y="81" width="100" height="21" as="geometry"/>
                </mxCell>
                <mxCell id="97" value="v1" style="rounded=1;whiteSpace=wrap;html=1;" parent="50" vertex="1">
                    <mxGeometry x="110" y="81" width="100" height="20" as="geometry"/>
                </mxCell>
                <mxCell id="58" value="字幕生成调整面板" style="swimlane;" parent="1" vertex="1">
                    <mxGeometry x="520" y="50" width="220" height="230" as="geometry"/>
                </mxCell>
                <mxCell id="61" value="" style="rounded=1;whiteSpace=wrap;html=1;" parent="58" vertex="1">
                    <mxGeometry x="5" y="30" width="215" height="190" as="geometry"/>
                </mxCell>
                <mxCell id="62" value="调整字幕文本" style="text;html=1;strokeColor=none;fillColor=none;align=center;verticalAlign=middle;whiteSpace=wrap;rounded=0;" parent="58" vertex="1">
                    <mxGeometry x="20" y="30" width="90" height="20" as="geometry"/>
                </mxCell>
                <mxCell id="63" value="" style="rounded=0;whiteSpace=wrap;html=1;" parent="58" vertex="1">
                    <mxGeometry x="10" y="60" width="200" height="110" as="geometry"/>
                </mxCell>
                <mxCell id="64" value="00:01 16'':你好啊&lt;br&gt;00:02 03'':我很好" style="text;html=1;strokeColor=none;fillColor=none;align=center;verticalAlign=middle;whiteSpace=wrap;rounded=0;" parent="58" vertex="1">
                    <mxGeometry x="20" y="70" width="110" height="30" as="geometry"/>
                </mxCell>
                <mxCell id="65" value="提交" style="ellipse;whiteSpace=wrap;html=1;aspect=fixed;" parent="58" vertex="1">
                    <mxGeometry x="95" y="180" width="30" height="30" as="geometry"/>
                </mxCell>
                <mxCell id="59" value="" style="endArrow=classic;html=1;exitX=0.5;exitY=0;exitDx=0;exitDy=0;entryX=0.5;entryY=1;entryDx=0;entryDy=0;" parent="1" source="57" target="58" edge="1">
                    <mxGeometry width="50" height="50" relative="1" as="geometry">
                        <mxPoint x="410" y="270" as="sourcePoint"/>
                        <mxPoint x="460" y="220" as="targetPoint"/>
                    </mxGeometry>
                </mxCell>
                <mxCell id="66" value="" style="endArrow=classic;html=1;entryX=0.5;entryY=1;entryDx=0;entryDy=0;exitX=0.5;exitY=0;exitDx=0;exitDy=0;" parent="1" source="43" target="50" edge="1">
                    <mxGeometry width="50" height="50" relative="1" as="geometry">
                        <mxPoint x="520" y="630" as="sourcePoint"/>
                        <mxPoint x="570" y="580" as="targetPoint"/>
                    </mxGeometry>
                </mxCell>
                <mxCell id="84" style="edgeStyle=none;html=1;exitX=1;exitY=0.5;exitDx=0;exitDy=0;entryX=0;entryY=0;entryDx=0;entryDy=0;" parent="1" source="67" target="144" edge="1">
                    <mxGeometry relative="1" as="geometry">
                        <mxPoint x="1050" y="799.9999999999998" as="targetPoint"/>
                        <mxPoint x="1000" y="770" as="sourcePoint"/>
                    </mxGeometry>
                </mxCell>
                <mxCell id="86" style="edgeStyle=none;html=1;exitX=1;exitY=0.5;exitDx=0;exitDy=0;entryX=0;entryY=0.75;entryDx=0;entryDy=0;" parent="1" source="67" target="224" edge="1">
                    <mxGeometry relative="1" as="geometry">
                        <mxPoint x="1520" y="830" as="targetPoint"/>
                    </mxGeometry>
                </mxCell>
                <mxCell id="67" value="根据选中的素材文件显示对应面板" style="rounded=1;whiteSpace=wrap;html=1;" parent="1" vertex="1">
                    <mxGeometry x="530" y="845" width="120" height="60" as="geometry"/>
                </mxCell>
                <mxCell id="68" value="设置面板" style="swimlane;" parent="1" vertex="1">
                    <mxGeometry x="950" y="40" width="340" height="530" as="geometry"/>
                </mxCell>
                <mxCell id="70" value="" style="rounded=1;whiteSpace=wrap;html=1;" parent="68" vertex="1">
                    <mxGeometry y="25" width="340" height="505" as="geometry"/>
                </mxCell>
                <mxCell id="71" value="------------------------常规-------------------------" style="text;html=1;strokeColor=none;fillColor=none;align=center;verticalAlign=middle;whiteSpace=wrap;rounded=0;" parent="68" vertex="1">
                    <mxGeometry x="30" y="25" width="250" height="30" as="geometry"/>
                </mxCell>
                <mxCell id="72" value="素材文件目录" style="text;html=1;strokeColor=none;fillColor=none;align=center;verticalAlign=middle;whiteSpace=wrap;rounded=0;" parent="68" vertex="1">
                    <mxGeometry x="20" y="60" width="100" height="21" as="geometry"/>
                </mxCell>
                <mxCell id="73" value="D://yindahu/met_files/" style="rounded=1;whiteSpace=wrap;html=1;" parent="68" vertex="1">
                    <mxGeometry x="110" y="60" width="160" height="20" as="geometry"/>
                </mxCell>
                <mxCell id="75" value="300" style="rounded=1;whiteSpace=wrap;html=1;" parent="68" vertex="1">
                    <mxGeometry x="110" y="115" width="160" height="20" as="geometry"/>
                </mxCell>
                <mxCell id="76" value="卡点时长(毫秒):" style="text;html=1;strokeColor=none;fillColor=none;align=center;verticalAlign=middle;whiteSpace=wrap;rounded=0;" parent="68" vertex="1">
                    <mxGeometry x="20" y="115" width="100" height="21" as="geometry"/>
                </mxCell>
                <mxCell id="77" value="------------------------卡点-------------------------" style="text;html=1;strokeColor=none;fillColor=none;align=center;verticalAlign=middle;whiteSpace=wrap;rounded=0;" parent="68" vertex="1">
                    <mxGeometry x="30" y="80" width="250" height="30" as="geometry"/>
                </mxCell>
                <mxCell id="78" value="瞬切" style="rounded=1;whiteSpace=wrap;html=1;" parent="68" vertex="1">
                    <mxGeometry x="125.5" y="255" width="160" height="20" as="geometry"/>
                </mxCell>
                <mxCell id="79" value="转场效果下拉框:" style="text;html=1;strokeColor=none;fillColor=none;align=center;verticalAlign=middle;whiteSpace=wrap;rounded=0;" parent="68" vertex="1">
                    <mxGeometry x="24.5" y="255" width="100" height="21" as="geometry"/>
                </mxCell>
                <mxCell id="80" value="------------------------转场-------------------------" style="text;html=1;strokeColor=none;fillColor=none;align=center;verticalAlign=middle;whiteSpace=wrap;rounded=0;" parent="68" vertex="1">
                    <mxGeometry x="34.5" y="220" width="250" height="30" as="geometry"/>
                </mxCell>
                <mxCell id="98" value="转场持续时间(毫秒):" style="text;html=1;strokeColor=none;fillColor=none;align=center;verticalAlign=middle;whiteSpace=wrap;rounded=0;" parent="68" vertex="1">
                    <mxGeometry x="24.5" y="276" width="100" height="21" as="geometry"/>
                </mxCell>
                <mxCell id="99" value="300" style="rounded=1;whiteSpace=wrap;html=1;" parent="68" vertex="1">
                    <mxGeometry x="125.5" y="276" width="160" height="20" as="geometry"/>
                </mxCell>
                <mxCell id="101" value="入点快捷键" style="text;html=1;strokeColor=none;fillColor=none;align=center;verticalAlign=middle;whiteSpace=wrap;rounded=0;" parent="68" vertex="1">
                    <mxGeometry x="20" y="136" width="100" height="21" as="geometry"/>
                </mxCell>
                <mxCell id="102" value="a" style="rounded=1;whiteSpace=wrap;html=1;" parent="68" vertex="1">
                    <mxGeometry x="110" y="136" width="160" height="20" as="geometry"/>
                </mxCell>
                <mxCell id="103" value="变速点快捷键" style="text;html=1;strokeColor=none;fillColor=none;align=center;verticalAlign=middle;whiteSpace=wrap;rounded=0;" parent="68" vertex="1">
                    <mxGeometry x="20" y="157" width="100" height="21" as="geometry"/>
                </mxCell>
                <mxCell id="104" value="s" style="rounded=1;whiteSpace=wrap;html=1;" parent="68" vertex="1">
                    <mxGeometry x="110" y="157" width="160" height="20" as="geometry"/>
                </mxCell>
                <mxCell id="105" value="出点快捷键" style="text;html=1;strokeColor=none;fillColor=none;align=center;verticalAlign=middle;whiteSpace=wrap;rounded=0;" parent="68" vertex="1">
                    <mxGeometry x="20" y="178" width="100" height="21" as="geometry"/>
                </mxCell>
                <mxCell id="106" value="d" style="rounded=1;whiteSpace=wrap;html=1;" parent="68" vertex="1">
                    <mxGeometry x="110" y="178" width="160" height="20" as="geometry"/>
                </mxCell>
                <mxCell id="69" value="" style="endArrow=classic;html=1;exitX=1;exitY=0;exitDx=0;exitDy=0;entryX=0;entryY=0.5;entryDx=0;entryDy=0;" parent="1" source="8" target="70" edge="1">
                    <mxGeometry width="50" height="50" relative="1" as="geometry">
                        <mxPoint x="910" y="650" as="sourcePoint"/>
                        <mxPoint x="960" y="600" as="targetPoint"/>
                    </mxGeometry>
                </mxCell>
                <mxCell id="81" value="视频预览面板" style="swimlane;" parent="1" vertex="1">
                    <mxGeometry x="1440" y="220" width="360" height="310" as="geometry"/>
                </mxCell>
                <mxCell id="87" value="v1" style="rounded=0;whiteSpace=wrap;html=1;" parent="81" vertex="1">
                    <mxGeometry x="50" y="27.5" width="40" height="20" as="geometry"/>
                </mxCell>
                <mxCell id="88" value="主轨道:" style="text;html=1;strokeColor=none;fillColor=none;align=center;verticalAlign=middle;whiteSpace=wrap;rounded=0;" parent="81" vertex="1">
                    <mxGeometry y="25" width="50" height="25" as="geometry"/>
                </mxCell>
                <mxCell id="89" value="&lt;font style=&quot;font-size: 8px&quot;&gt;视频轨道:&lt;/font&gt;" style="text;html=1;strokeColor=none;fillColor=none;align=center;verticalAlign=middle;whiteSpace=wrap;rounded=0;" parent="81" vertex="1">
                    <mxGeometry x="100" y="25" width="50" height="15" as="geometry"/>
                </mxCell>
                <mxCell id="90" value="v1" style="rounded=0;whiteSpace=wrap;html=1;" parent="81" vertex="1">
                    <mxGeometry x="160" y="25" width="30" height="15" as="geometry"/>
                </mxCell>
                <mxCell id="91" value="提交" style="ellipse;whiteSpace=wrap;html=1;aspect=fixed;" parent="81" vertex="1">
                    <mxGeometry x="320" y="25" width="27.5" height="27.5" as="geometry"/>
                </mxCell>
                <mxCell id="92" value="" style="endArrow=none;html=1;" parent="81" edge="1">
                    <mxGeometry width="50" height="50" relative="1" as="geometry">
                        <mxPoint y="60" as="sourcePoint"/>
                        <mxPoint x="350" y="60" as="targetPoint"/>
                    </mxGeometry>
                </mxCell>
                <mxCell id="93" value="《视频预览区》" style="rounded=1;whiteSpace=wrap;html=1;" parent="81" vertex="1">
                    <mxGeometry y="60" width="270" height="170" as="geometry"/>
                </mxCell>
                <mxCell id="94" value="" style="rounded=0;whiteSpace=wrap;html=1;" parent="81" vertex="1">
                    <mxGeometry x="10" y="230" width="260" height="10" as="geometry"/>
                </mxCell>
                <mxCell id="95" value="" style="ellipse;whiteSpace=wrap;html=1;aspect=fixed;" parent="81" vertex="1">
                    <mxGeometry x="80" y="230" width="10" height="10" as="geometry"/>
                </mxCell>
                <mxCell id="112" value="&lt;font style=&quot;font-size: 8px&quot;&gt;音频轨道:&lt;/font&gt;" style="text;html=1;strokeColor=none;fillColor=none;align=center;verticalAlign=middle;whiteSpace=wrap;rounded=0;" parent="81" vertex="1">
                    <mxGeometry x="100" y="37.5" width="50" height="15" as="geometry"/>
                </mxCell>
                <mxCell id="113" value="A1" style="rounded=0;whiteSpace=wrap;html=1;" parent="81" vertex="1">
                    <mxGeometry x="160" y="37.5" width="30" height="15" as="geometry"/>
                </mxCell>
                <mxCell id="114" value="保存" style="ellipse;whiteSpace=wrap;html=1;aspect=fixed;" parent="81" vertex="1">
                    <mxGeometry x="292.5" y="27.5" width="27.5" height="27.5" as="geometry"/>
                </mxCell>
                <mxCell id="119" value="" style="rounded=1;whiteSpace=wrap;html=1;fontSize=8;" parent="81" vertex="1">
                    <mxGeometry x="270" y="65" width="90" height="245" as="geometry"/>
                </mxCell>
                <mxCell id="121" value="打点信息" style="text;html=1;strokeColor=none;fillColor=none;align=center;verticalAlign=middle;whiteSpace=wrap;rounded=0;fontSize=8;" parent="81" vertex="1">
                    <mxGeometry x="270" y="65" width="54" height="15" as="geometry"/>
                </mxCell>
                <mxCell id="122" value="&lt;font style=&quot;font-size: 11px&quot;&gt;入点：1.233s&lt;/font&gt;" style="rounded=0;whiteSpace=wrap;html=1;fontSize=8;" parent="81" vertex="1">
                    <mxGeometry x="270" y="80" width="90" height="20" as="geometry"/>
                </mxCell>
                <mxCell id="123" value="&lt;font style=&quot;font-size: 11px&quot;&gt;变速点：2.093s&lt;/font&gt;" style="rounded=0;whiteSpace=wrap;html=1;fontSize=8;" parent="81" vertex="1">
                    <mxGeometry x="270" y="100" width="90" height="20" as="geometry"/>
                </mxCell>
                <mxCell id="124" value="&lt;font style=&quot;font-size: 11px&quot;&gt;变速点：4.445s&lt;/font&gt;" style="rounded=0;whiteSpace=wrap;html=1;fontSize=8;" parent="81" vertex="1">
                    <mxGeometry x="270" y="120" width="90" height="20" as="geometry"/>
                </mxCell>
                <mxCell id="125" value="&lt;font style=&quot;font-size: 11px&quot;&gt;出点：7.367s&lt;/font&gt;" style="rounded=0;whiteSpace=wrap;html=1;fontSize=8;" parent="81" vertex="1">
                    <mxGeometry x="270" y="140" width="90" height="20" as="geometry"/>
                </mxCell>
                <mxCell id="136" value="播放" style="ellipse;whiteSpace=wrap;html=1;aspect=fixed;fontSize=11;" parent="81" vertex="1">
                    <mxGeometry x="123" y="240" width="34" height="34" as="geometry"/>
                </mxCell>
                <mxCell id="137" value="100" style="rounded=0;whiteSpace=wrap;html=1;fontSize=11;" parent="81" vertex="1">
                    <mxGeometry x="62.5" y="247" width="45" height="27" as="geometry"/>
                </mxCell>
                <mxCell id="138" value="100" style="rounded=0;whiteSpace=wrap;html=1;fontSize=11;" parent="81" vertex="1">
                    <mxGeometry x="169" y="247" width="45" height="27" as="geometry"/>
                </mxCell>
                <mxCell id="139" value="左(ms)" style="ellipse;whiteSpace=wrap;html=1;aspect=fixed;fontSize=11;" parent="81" vertex="1">
                    <mxGeometry x="10" y="240" width="40" height="40" as="geometry"/>
                </mxCell>
                <mxCell id="140" value="右(ms)" style="ellipse;whiteSpace=wrap;html=1;aspect=fixed;fontSize=11;" parent="81" vertex="1">
                    <mxGeometry x="225" y="240" width="40" height="40" as="geometry"/>
                </mxCell>
                <mxCell id="141" value="待匹配点：入变入入入变变入出" style="rounded=0;whiteSpace=wrap;html=1;fontSize=11;align=left;" parent="81" vertex="1">
                    <mxGeometry x="5" y="280" width="265" height="30" as="geometry"/>
                </mxCell>
                <mxCell id="85" style="edgeStyle=none;html=1;exitX=1;exitY=0.5;exitDx=0;exitDy=0;" parent="1" source="67" edge="1">
                    <mxGeometry relative="1" as="geometry">
                        <mxPoint x="1440" y="350" as="targetPoint"/>
                    </mxGeometry>
                </mxCell>
                <mxCell id="126" value="支持右键删除" style="ellipse;shape=cloud;whiteSpace=wrap;html=1;fontSize=11;" parent="1" vertex="1">
                    <mxGeometry x="1870" y="225" width="120" height="80" as="geometry"/>
                </mxCell>
                <mxCell id="128" style="edgeStyle=none;html=1;entryX=0.13;entryY=0.77;entryDx=0;entryDy=0;entryPerimeter=0;fontSize=11;" parent="1" source="119" target="126" edge="1">
                    <mxGeometry relative="1" as="geometry"/>
                </mxCell>
                <mxCell id="130" value="sql同时返回素材文件id,素材id" style="ellipse;shape=cloud;whiteSpace=wrap;html=1;fontSize=11;" parent="1" vertex="1">
                    <mxGeometry x="-220" y="275" width="120" height="80" as="geometry"/>
                </mxCell>
                <mxCell id="142" value="打点规则：&lt;br&gt;自由点：包含多个完整的入，出点组合，入出点之间可以有0到多个&lt;br&gt;变速点，连续的出入点可以简化为出点&lt;br&gt;卡点：包含一个完整的入，出点或入，变点" style="ellipse;shape=cloud;whiteSpace=wrap;html=1;fontSize=11;" parent="1" vertex="1">
                    <mxGeometry x="1880" y="371" width="420" height="119" as="geometry"/>
                </mxCell>
                <mxCell id="144" value="音频预览面板" style="swimlane;" parent="1" vertex="1">
                    <mxGeometry x="990" y="1020" width="360" height="310" as="geometry"/>
                </mxCell>
                <mxCell id="145" value="v1" style="rounded=0;whiteSpace=wrap;html=1;" parent="144" vertex="1">
                    <mxGeometry x="50" y="27.5" width="40" height="20" as="geometry"/>
                </mxCell>
                <mxCell id="146" value="主轨道:" style="text;html=1;strokeColor=none;fillColor=none;align=center;verticalAlign=middle;whiteSpace=wrap;rounded=0;" parent="144" vertex="1">
                    <mxGeometry y="25" width="50" height="25" as="geometry"/>
                </mxCell>
                <mxCell id="149" value="提交" style="ellipse;whiteSpace=wrap;html=1;aspect=fixed;" parent="144" vertex="1">
                    <mxGeometry x="320" y="25" width="27.5" height="27.5" as="geometry"/>
                </mxCell>
                <mxCell id="150" value="" style="endArrow=none;html=1;" parent="144" edge="1">
                    <mxGeometry width="50" height="50" relative="1" as="geometry">
                        <mxPoint y="60" as="sourcePoint"/>
                        <mxPoint x="350" y="60" as="targetPoint"/>
                    </mxGeometry>
                </mxCell>
                <mxCell id="151" value="《音频预览区》" style="rounded=1;whiteSpace=wrap;html=1;" parent="144" vertex="1">
                    <mxGeometry y="60" width="270" height="170" as="geometry"/>
                </mxCell>
                <mxCell id="152" value="" style="rounded=0;whiteSpace=wrap;html=1;" parent="144" vertex="1">
                    <mxGeometry x="10" y="230" width="260" height="10" as="geometry"/>
                </mxCell>
                <mxCell id="153" value="" style="ellipse;whiteSpace=wrap;html=1;aspect=fixed;" parent="144" vertex="1">
                    <mxGeometry x="80" y="230" width="10" height="10" as="geometry"/>
                </mxCell>
                <mxCell id="154" value="&lt;font style=&quot;font-size: 8px&quot;&gt;音频轨道:&lt;/font&gt;" style="text;html=1;strokeColor=none;fillColor=none;align=center;verticalAlign=middle;whiteSpace=wrap;rounded=0;" parent="144" vertex="1">
                    <mxGeometry x="95" y="27.5" width="60" height="22.5" as="geometry"/>
                </mxCell>
                <mxCell id="155" value="v1" style="rounded=0;whiteSpace=wrap;html=1;" parent="144" vertex="1">
                    <mxGeometry x="155" y="27.5" width="30" height="22.5" as="geometry"/>
                </mxCell>
                <mxCell id="156" value="保存" style="ellipse;whiteSpace=wrap;html=1;aspect=fixed;" parent="144" vertex="1">
                    <mxGeometry x="292.5" y="27.5" width="27.5" height="27.5" as="geometry"/>
                </mxCell>
                <mxCell id="158" value="" style="rounded=1;whiteSpace=wrap;html=1;fontSize=8;" parent="144" vertex="1">
                    <mxGeometry x="270" y="65" width="90" height="245" as="geometry"/>
                </mxCell>
                <mxCell id="160" value="打点信息" style="text;html=1;strokeColor=none;fillColor=none;align=center;verticalAlign=middle;whiteSpace=wrap;rounded=0;fontSize=8;" parent="144" vertex="1">
                    <mxGeometry x="270" y="65" width="54" height="15" as="geometry"/>
                </mxCell>
                <mxCell id="161" value="&lt;font style=&quot;font-size: 11px&quot;&gt;入点：1.233s&lt;/font&gt;" style="rounded=0;whiteSpace=wrap;html=1;fontSize=8;" parent="144" vertex="1">
                    <mxGeometry x="270" y="80" width="90" height="20" as="geometry"/>
                </mxCell>
                <mxCell id="162" value="&lt;font style=&quot;font-size: 11px&quot;&gt;变速点：2.093s&lt;/font&gt;" style="rounded=0;whiteSpace=wrap;html=1;fontSize=8;" parent="144" vertex="1">
                    <mxGeometry x="270" y="100" width="90" height="20" as="geometry"/>
                </mxCell>
                <mxCell id="163" value="&lt;font style=&quot;font-size: 11px&quot;&gt;变速点：4.445s&lt;/font&gt;" style="rounded=0;whiteSpace=wrap;html=1;fontSize=8;" parent="144" vertex="1">
                    <mxGeometry x="270" y="120" width="90" height="20" as="geometry"/>
                </mxCell>
                <mxCell id="164" value="&lt;font style=&quot;font-size: 11px&quot;&gt;出点：7.367s&lt;/font&gt;" style="rounded=0;whiteSpace=wrap;html=1;fontSize=8;" parent="144" vertex="1">
                    <mxGeometry x="270" y="140" width="90" height="20" as="geometry"/>
                </mxCell>
                <mxCell id="169" value="播放" style="ellipse;whiteSpace=wrap;html=1;aspect=fixed;fontSize=11;" parent="144" vertex="1">
                    <mxGeometry x="123" y="240" width="34" height="34" as="geometry"/>
                </mxCell>
                <mxCell id="170" value="100" style="rounded=0;whiteSpace=wrap;html=1;fontSize=11;" parent="144" vertex="1">
                    <mxGeometry x="62.5" y="247" width="45" height="27" as="geometry"/>
                </mxCell>
                <mxCell id="171" value="100" style="rounded=0;whiteSpace=wrap;html=1;fontSize=11;" parent="144" vertex="1">
                    <mxGeometry x="169" y="247" width="45" height="27" as="geometry"/>
                </mxCell>
                <mxCell id="172" value="左(ms)" style="ellipse;whiteSpace=wrap;html=1;aspect=fixed;fontSize=11;" parent="144" vertex="1">
                    <mxGeometry x="10" y="240" width="40" height="40" as="geometry"/>
                </mxCell>
                <mxCell id="173" value="右(ms)" style="ellipse;whiteSpace=wrap;html=1;aspect=fixed;fontSize=11;" parent="144" vertex="1">
                    <mxGeometry x="225" y="240" width="40" height="40" as="geometry"/>
                </mxCell>
                <mxCell id="174" value="待匹配点：入变入入入变变入出" style="rounded=0;whiteSpace=wrap;html=1;fontSize=11;align=left;" parent="144" vertex="1">
                    <mxGeometry x="5" y="280" width="260" height="30" as="geometry"/>
                </mxCell>
                <mxCell id="177" value="支持右键删除" style="ellipse;shape=cloud;whiteSpace=wrap;html=1;fontSize=11;" parent="1" vertex="1">
                    <mxGeometry x="1420" y="1025" width="120" height="80" as="geometry"/>
                </mxCell>
                <mxCell id="178" style="edgeStyle=none;html=1;entryX=0.13;entryY=0.77;entryDx=0;entryDy=0;entryPerimeter=0;fontSize=11;" parent="1" source="158" target="177" edge="1">
                    <mxGeometry relative="1" as="geometry"/>
                </mxCell>
                <mxCell id="219" value="图片预览面板" style="swimlane;" parent="1" vertex="1">
                    <mxGeometry x="1550" y="640" width="360" height="310" as="geometry"/>
                </mxCell>
                <mxCell id="220" value="v1" style="rounded=0;whiteSpace=wrap;html=1;" parent="219" vertex="1">
                    <mxGeometry x="50" y="27.5" width="40" height="20" as="geometry"/>
                </mxCell>
                <mxCell id="221" value="主轨道:" style="text;html=1;strokeColor=none;fillColor=none;align=center;verticalAlign=middle;whiteSpace=wrap;rounded=0;" parent="219" vertex="1">
                    <mxGeometry y="25" width="50" height="25" as="geometry"/>
                </mxCell>
                <mxCell id="222" value="提交" style="ellipse;whiteSpace=wrap;html=1;aspect=fixed;" parent="219" vertex="1">
                    <mxGeometry x="320" y="25" width="27.5" height="27.5" as="geometry"/>
                </mxCell>
                <mxCell id="223" value="" style="endArrow=none;html=1;" parent="219" edge="1">
                    <mxGeometry width="50" height="50" relative="1" as="geometry">
                        <mxPoint y="60" as="sourcePoint"/>
                        <mxPoint x="350" y="60" as="targetPoint"/>
                    </mxGeometry>
                </mxCell>
                <mxCell id="224" value="《图片预览区》" style="rounded=1;whiteSpace=wrap;html=1;arcSize=10;" parent="219" vertex="1">
                    <mxGeometry y="60" width="360" height="250" as="geometry"/>
                </mxCell>
                <mxCell id="227" value="&lt;font style=&quot;font-size: 8px&quot;&gt;视频轨道:&lt;/font&gt;" style="text;html=1;strokeColor=none;fillColor=none;align=center;verticalAlign=middle;whiteSpace=wrap;rounded=0;" parent="219" vertex="1">
                    <mxGeometry x="95" y="27.5" width="60" height="22.5" as="geometry"/>
                </mxCell>
                <mxCell id="228" value="v1" style="rounded=0;whiteSpace=wrap;html=1;" parent="219" vertex="1">
                    <mxGeometry x="155" y="27.5" width="30" height="22.5" as="geometry"/>
                </mxCell>
                <mxCell id="267" value="" style="rounded=1;whiteSpace=wrap;html=1;fontSize=8;" parent="1" vertex="1">
                    <mxGeometry x="430" y="1010" width="340" height="190" as="geometry"/>
                </mxCell>
                <mxCell id="268" value="&lt;font style=&quot;font-size: 11px&quot;&gt;id|1.233s|入变变出&lt;/font&gt;" style="rounded=0;whiteSpace=wrap;html=1;fontSize=8;" parent="1" vertex="1">
                    <mxGeometry x="430" y="1035" width="330" height="20" as="geometry"/>
                </mxCell>
                <mxCell id="269" value="&lt;font style=&quot;font-size: 11px&quot;&gt;id|4.445s|入出&lt;/font&gt;" style="rounded=0;whiteSpace=wrap;html=1;fontSize=8;" parent="1" vertex="1">
                    <mxGeometry x="430" y="1075" width="330" height="25" as="geometry"/>
                </mxCell>
                <mxCell id="270" value="&lt;font style=&quot;font-size: 11px&quot;&gt;id|2.093s|入变出&lt;/font&gt;" style="rounded=0;whiteSpace=wrap;html=1;fontSize=8;" parent="1" vertex="1">
                    <mxGeometry x="430" y="1055" width="330" height="20" as="geometry"/>
                </mxCell>
                <mxCell id="271" value="素材" style="text;html=1;strokeColor=none;fillColor=none;align=center;verticalAlign=middle;whiteSpace=wrap;rounded=0;fontSize=8;" parent="1" vertex="1">
                    <mxGeometry x="430" y="1010" width="54" height="15" as="geometry"/>
                </mxCell>
                <mxCell id="272" value="支持右键：&lt;br&gt;管理标签&lt;br&gt;删除" style="ellipse;shape=cloud;whiteSpace=wrap;html=1;fontSize=11;" parent="1" vertex="1">
                    <mxGeometry x="800.98" y="1076" width="120" height="80" as="geometry"/>
                </mxCell>
                <mxCell id="273" style="edgeStyle=none;html=1;entryX=0.13;entryY=0.77;entryDx=0;entryDy=0;entryPerimeter=0;fontSize=11;" parent="1" target="272" edge="1">
                    <mxGeometry relative="1" as="geometry">
                        <mxPoint x="720" y="1075" as="sourcePoint"/>
                    </mxGeometry>
                </mxCell>
                <mxCell id="274" value="" style="rounded=1;whiteSpace=wrap;html=1;" parent="1" vertex="1">
                    <mxGeometry x="90" y="1010" width="340" height="200" as="geometry"/>
                </mxCell>
                <mxCell id="275" value="素材文件|素材信息" style="text;html=1;strokeColor=none;fillColor=none;align=center;verticalAlign=middle;whiteSpace=wrap;rounded=0;" parent="1" vertex="1">
                    <mxGeometry x="90" y="1010" width="110" height="30" as="geometry"/>
                </mxCell>
                <mxCell id="276" value="" style="endArrow=none;html=1;exitX=0;exitY=0.25;exitDx=0;exitDy=0;entryX=1;entryY=0.25;entryDx=0;entryDy=0;" parent="1" source="274" target="274" edge="1">
                    <mxGeometry width="50" height="50" relative="1" as="geometry">
                        <mxPoint x="200" y="1130" as="sourcePoint"/>
                        <mxPoint x="250" y="1080" as="targetPoint"/>
                    </mxGeometry>
                </mxCell>
                <mxCell id="277" value="" style="endArrow=none;html=1;exitX=-0.006;exitY=0.432;exitDx=0;exitDy=0;entryX=1.003;entryY=0.441;entryDx=0;entryDy=0;exitPerimeter=0;entryPerimeter=0;startArrow=none;" parent="1" source="274" target="274" edge="1">
                    <mxGeometry width="50" height="50" relative="1" as="geometry">
                        <mxPoint x="100" y="1070" as="sourcePoint"/>
                        <mxPoint x="440" y="1070" as="targetPoint"/>
                    </mxGeometry>
                </mxCell>
                <mxCell id="278" value="" style="endArrow=none;html=1;exitX=-0.006;exitY=0.4;exitDx=0;exitDy=0;entryX=1.003;entryY=0.39;entryDx=0;entryDy=0;exitPerimeter=0;entryPerimeter=0;" parent="1" edge="1">
                    <mxGeometry width="50" height="50" relative="1" as="geometry">
                        <mxPoint x="88.47000000000004" y="1169" as="sourcePoint"/>
                        <mxPoint x="431.53" y="1167" as="targetPoint"/>
                    </mxGeometry>
                </mxCell>
                <mxCell id="279" value="" style="endArrow=none;html=1;exitX=0;exitY=0.25;exitDx=0;exitDy=0;entryX=1;entryY=0.25;entryDx=0;entryDy=0;" parent="1" edge="1">
                    <mxGeometry width="50" height="50" relative="1" as="geometry">
                        <mxPoint x="90" y="1130" as="sourcePoint"/>
                        <mxPoint x="430" y="1130" as="targetPoint"/>
                    </mxGeometry>
                </mxCell>
                <mxCell id="280" value="素材文件路径：" style="text;html=1;strokeColor=none;fillColor=none;align=left;verticalAlign=middle;whiteSpace=wrap;rounded=0;" parent="1" vertex="1">
                    <mxGeometry x="110" y="1035" width="310" height="30" as="geometry"/>
                </mxCell>
                <mxCell id="281" value="创建时间：" style="text;html=1;strokeColor=none;fillColor=none;align=left;verticalAlign=middle;whiteSpace=wrap;rounded=0;" parent="1" vertex="1">
                    <mxGeometry x="110" y="1105" width="310" height="30" as="geometry"/>
                </mxCell>
                <mxCell id="283" value="标签：" style="text;html=1;strokeColor=none;fillColor=none;align=left;verticalAlign=middle;whiteSpace=wrap;rounded=0;" parent="1" vertex="1">
                    <mxGeometry x="110" y="1135" width="310" height="30" as="geometry"/>
                </mxCell>
                <mxCell id="284" value="" style="endArrow=none;html=1;entryX=0.75;entryY=0;entryDx=0;entryDy=0;exitX=0.75;exitY=1;exitDx=0;exitDy=0;" parent="1" source="269" target="268" edge="1">
                    <mxGeometry width="50" height="50" relative="1" as="geometry">
                        <mxPoint x="700" y="1050" as="sourcePoint"/>
                        <mxPoint x="750" y="1000" as="targetPoint"/>
                    </mxGeometry>
                </mxCell>
                <mxCell id="285" value="tag1,tag2" style="text;html=1;strokeColor=none;fillColor=none;align=center;verticalAlign=middle;whiteSpace=wrap;rounded=0;" parent="1" vertex="1">
                    <mxGeometry x="680" y="1044" width="50" height="12" as="geometry"/>
                </mxCell>
                <mxCell id="286" value="tag1,tag2" style="text;html=1;strokeColor=none;fillColor=none;align=center;verticalAlign=middle;whiteSpace=wrap;rounded=0;" parent="1" vertex="1">
                    <mxGeometry x="680" y="1063" width="50" height="12" as="geometry"/>
                </mxCell>
                <mxCell id="287" value="tag1,tag2" style="text;html=1;strokeColor=none;fillColor=none;align=center;verticalAlign=middle;whiteSpace=wrap;rounded=0;" parent="1" vertex="1">
                    <mxGeometry x="680" y="1081.5" width="50" height="12" as="geometry"/>
                </mxCell>
                <mxCell id="288" value="id" style="text;html=1;strokeColor=none;fillColor=none;align=center;verticalAlign=middle;whiteSpace=wrap;rounded=0;" parent="1" vertex="1">
                    <mxGeometry x="90" y="1070" width="60" height="30" as="geometry"/>
                </mxCell>
            </root>
        </mxGraphModel>
    </diagram>
</mxfile>